<svg xmlns="http://www.w3.org/2000/svg" xmlns:xlink="http://www.w3.org/1999/xlink" width="500" zoomAndPan="magnify" viewBox="0 0 375 374.999991" height="500" preserveAspectRatio="xMidYMid meet" version="1.0"><defs><clipPath id="30616d784c"><path d="M 24.546875 2 L 349 2 L 349 373 L 24.546875 373 Z M 24.546875 2 " clip-rule="nonzero"/></clipPath></defs><g clip-path="url(#30616d784c)"><path fill="#6a61ff" d="M 348.734375 267.808594 C 348.632812 283.167969 340.667969 286.585938 340.667969 286.585938 C 340.667969 286.585938 203.042969 366.109375 194.105469 371.085938 C 185.226562 374.898438 179.304688 371.085938 179.304688 371.085938 C 179.304688 371.085938 35.308594 287.574219 30.054688 283.902344 C 24.796875 280.230469 24.671875 274.519531 24.671875 274.519531 C 24.671875 274.519531 24.820312 109.152344 24.671875 101.492188 C 24.527344 93.832031 34.085938 88.074219 34.085938 88.074219 L 177.953125 4.914062 C 186.816406 0.238281 195.441406 4.914062 195.441406 4.914062 C 195.441406 4.914062 322.53125 78.792969 336.625 86.734375 C 350.425781 93.296875 348.730469 106.855469 348.730469 106.855469 C 348.730469 106.855469 348.804688 253.546875 348.730469 267.816406 Z M 291.289062 101.835938 C 261.828125 84.878906 192.433594 44.667969 192.433594 44.667969 C 192.433594 44.667969 185.660156 41.007812 178.707031 44.667969 L 65.742188 109.75 C 65.742188 109.75 58.238281 114.253906 58.351562 120.246094 C 58.46875 126.238281 58.351562 255.660156 58.351562 255.660156 C 58.351562 255.660156 58.449219 260.128906 62.578125 263.003906 C 66.703125 265.875 179.757812 331.234375 179.757812 331.234375 C 179.757812 331.234375 184.417969 334.207031 191.367188 331.234375 C 198.394531 327.332031 306.445312 265.105469 306.445312 265.105469 C 306.445312 265.105469 312.714844 262.417969 312.777344 250.40625 C 312.800781 246.949219 312.800781 233.488281 312.816406 216.597656 L 185.59375 293.679688 L 185.59375 264.191406 C 185.59375 252.074219 194.976562 244.085938 194.976562 244.085938 L 307.496094 176.285156 C 311.738281 171.84375 312.613281 164.738281 312.800781 162.054688 C 312.789062 149.734375 312.789062 138.984375 312.789062 132.160156 L 185.59375 209.230469 L 185.59375 178.402344 C 185.59375 166.296875 193.636719 160.980469 193.636719 160.980469 L 291.289062 101.828125 Z M 291.289062 101.835938 " fill-opacity="1" fill-rule="nonzero"/></g></svg>