<svg xmlns="http://www.w3.org/2000/svg" xmlns:xlink="http://www.w3.org/1999/xlink" width="236" zoomAndPan="magnify" viewBox="0 0 177 67.499998" height="90" preserveAspectRatio="xMidYMid meet" version="1.0"><defs><g/><clipPath id="a193097fb1"><path d="M 0.652344 0 L 58.71875 0 L 58.71875 67 L 0.652344 67 Z M 0.652344 0 " clip-rule="nonzero"/></clipPath></defs><g clip-path="url(#a193097fb1)"><path fill="#6a61ff" d="M 58.335938 47.644531 C 58.316406 50.378906 56.898438 50.988281 56.898438 50.988281 C 56.898438 50.988281 32.410156 65.136719 30.820312 66.023438 C 29.242188 66.699219 28.1875 66.023438 28.1875 66.023438 C 28.1875 66.023438 2.566406 51.164062 1.628906 50.507812 C 0.695312 49.855469 0.671875 48.839844 0.671875 48.839844 C 0.671875 48.839844 0.699219 19.414062 0.671875 18.054688 C 0.648438 16.6875 2.347656 15.664062 2.347656 15.664062 L 27.949219 0.867188 C 29.523438 0.0351562 31.058594 0.867188 31.058594 0.867188 C 31.058594 0.867188 53.671875 14.015625 56.179688 15.425781 C 58.636719 16.59375 58.332031 19.007812 58.332031 19.007812 C 58.332031 19.007812 58.347656 45.109375 58.332031 47.648438 Z M 48.113281 18.113281 C 42.871094 15.097656 30.523438 7.941406 30.523438 7.941406 C 30.523438 7.941406 29.316406 7.289062 28.082031 7.941406 L 7.980469 19.523438 C 7.980469 19.523438 6.644531 20.324219 6.667969 21.390625 C 6.6875 22.457031 6.667969 45.484375 6.667969 45.484375 C 6.667969 45.484375 6.683594 46.28125 7.417969 46.789062 C 8.152344 47.300781 28.269531 58.929688 28.269531 58.929688 C 28.269531 58.929688 29.097656 59.460938 30.335938 58.929688 C 31.585938 58.238281 50.808594 47.164062 50.808594 47.164062 C 50.808594 47.164062 51.925781 46.6875 51.9375 44.550781 C 51.941406 43.933594 51.941406 41.539062 51.945312 38.535156 L 29.308594 52.25 L 29.308594 47.003906 C 29.308594 44.847656 30.976562 43.425781 30.976562 43.425781 L 50.996094 31.359375 C 51.753906 30.570312 51.90625 29.304688 51.941406 28.828125 C 51.9375 26.636719 51.9375 24.722656 51.9375 23.511719 L 29.308594 37.222656 L 29.308594 31.738281 C 29.308594 29.582031 30.738281 28.636719 30.738281 28.636719 Z M 48.113281 18.113281 " fill-opacity="1" fill-rule="nonzero"/></g><g fill="#0b0b0b" fill-opacity="1"><g transform="translate(66.101067, 41.179063)"><g><path d="M 11.046875 0.171875 C 8.242188 0.171875 5.875 -0.765625 3.9375 -2.640625 C 2.007812 -4.523438 1.046875 -6.914062 1.046875 -9.8125 C 1.046875 -12.71875 2.007812 -15.113281 3.9375 -17 C 5.875 -18.882812 8.242188 -19.828125 11.046875 -19.828125 C 13.128906 -19.828125 14.984375 -19.316406 16.609375 -18.296875 C 18.234375 -17.273438 19.410156 -15.820312 20.140625 -13.9375 L 16.28125 -13.9375 C 15.226562 -15.914062 13.484375 -16.90625 11.046875 -16.90625 C 9.066406 -16.90625 7.453125 -16.253906 6.203125 -14.953125 C 4.960938 -13.660156 4.34375 -11.945312 4.34375 -9.8125 C 4.34375 -7.6875 4.960938 -5.972656 6.203125 -4.671875 C 7.453125 -3.378906 9.066406 -2.734375 11.046875 -2.734375 C 13.484375 -2.734375 15.226562 -3.71875 16.28125 -5.6875 L 20.140625 -5.6875 C 19.410156 -3.8125 18.234375 -2.363281 16.609375 -1.34375 C 14.984375 -0.332031 13.128906 0.171875 11.046875 0.171875 Z M 11.046875 0.171875 "/></g></g></g><g fill="#0b0b0b" fill-opacity="1"><g transform="translate(88.866136, 41.179063)"><g><path d="M 0.28125 -15.515625 L 3.71875 -15.515625 L 8.109375 -2.875 L 12.515625 -15.515625 L 15.96875 -15.515625 L 10.0625 0 L 6.171875 0 Z M 0.28125 -15.515625 "/></g></g></g><g fill="#0b0b0b" fill-opacity="1"><g transform="translate(106.080908, 41.179063)"><g><path d="M 2.109375 -19.578125 L 9.578125 -19.578125 C 11.585938 -19.578125 13.144531 -19.085938 14.25 -18.109375 C 15.363281 -17.140625 15.921875 -15.898438 15.921875 -14.390625 C 15.921875 -12.191406 14.648438 -10.75 12.109375 -10.0625 C 13.390625 -9.851562 14.421875 -9.28125 15.203125 -8.34375 C 15.984375 -7.414062 16.375 -6.351562 16.375 -5.15625 C 16.375 -3.65625 15.789062 -2.421875 14.625 -1.453125 C 13.457031 -0.484375 11.894531 0 9.9375 0 L 2.109375 0 Z M 5.328125 -17.078125 L 5.328125 -11.265625 L 9.296875 -11.265625 C 10.347656 -11.265625 11.171875 -11.519531 11.765625 -12.03125 C 12.359375 -12.539062 12.65625 -13.25 12.65625 -14.15625 C 12.65625 -15.0625 12.359375 -15.773438 11.765625 -16.296875 C 11.171875 -16.816406 10.347656 -17.078125 9.296875 -17.078125 Z M 5.328125 -2.5 L 9.65625 -2.5 C 10.75 -2.5 11.601562 -2.769531 12.21875 -3.3125 C 12.84375 -3.863281 13.15625 -4.625 13.15625 -5.59375 C 13.15625 -6.5625 12.828125 -7.332031 12.171875 -7.90625 C 11.515625 -8.476562 10.640625 -8.765625 9.546875 -8.765625 L 5.328125 -8.765625 Z M 5.328125 -2.5 "/></g></g></g><g fill="#0b0b0b" fill-opacity="1"><g transform="translate(124.817082, 41.179063)"><g><path d="M 12.203125 -3.859375 C 13.140625 -4.796875 13.609375 -6.097656 13.609375 -7.765625 C 13.609375 -9.441406 13.148438 -10.742188 12.234375 -11.671875 C 11.328125 -12.609375 10.222656 -13.078125 8.921875 -13.078125 C 7.628906 -13.078125 6.539062 -12.609375 5.65625 -11.671875 C 4.78125 -10.742188 4.34375 -9.4375 4.34375 -7.75 C 4.34375 -6.070312 4.773438 -4.769531 5.640625 -3.84375 C 6.503906 -2.914062 7.578125 -2.453125 8.859375 -2.453125 C 10.148438 -2.453125 11.265625 -2.921875 12.203125 -3.859375 Z M 8.859375 0.25 C 6.597656 0.25 4.734375 -0.484375 3.265625 -1.953125 C 1.804688 -3.429688 1.078125 -5.367188 1.078125 -7.765625 C 1.078125 -10.160156 1.832031 -12.09375 3.34375 -13.5625 C 4.851562 -15.039062 6.734375 -15.78125 8.984375 -15.78125 C 11.242188 -15.78125 13.128906 -15.039062 14.640625 -13.5625 C 16.148438 -12.09375 16.90625 -10.164062 16.90625 -7.78125 C 16.90625 -5.394531 16.128906 -3.457031 14.578125 -1.96875 C 13.023438 -0.488281 11.117188 0.25 8.859375 0.25 Z M 8.859375 0.25 "/></g></g></g><g fill="#0b0b0b" fill-opacity="1"><g transform="translate(143.77865, 41.179063)"><g><path d="M 13.78125 -15.515625 L 8.765625 -7.859375 L 13.78125 0 L 10.140625 0 L 6.796875 -5.265625 L 3.640625 0 L 0.28125 0 L 5.296875 -7.640625 L 0.28125 -15.515625 L 3.921875 -15.515625 L 7.265625 -10.25 L 10.421875 -15.515625 Z M 13.78125 -15.515625 "/></g></g></g></svg>