<svg xmlns="http://www.w3.org/2000/svg" xmlns:xlink="http://www.w3.org/1999/xlink" width="336" zoomAndPan="magnify" viewBox="0 0 252 143.249994" height="191" preserveAspectRatio="xMidYMid meet" version="1.0"><defs><g/><clipPath id="980c36fda2"><path d="M 96.835938 0 L 155 0 L 155 67 L 96.835938 67 Z M 96.835938 0 " clip-rule="nonzero"/></clipPath></defs><g clip-path="url(#980c36fda2)"><path fill="#6a61ff" d="M 154.644531 47.75 C 154.625 50.488281 153.207031 51.097656 153.207031 51.097656 C 153.207031 51.097656 128.664062 65.277344 127.070312 66.164062 C 125.488281 66.84375 124.429688 66.164062 124.429688 66.164062 C 124.429688 66.164062 98.753906 51.273438 97.816406 50.617188 C 96.878906 49.964844 96.855469 48.945312 96.855469 48.945312 C 96.855469 48.945312 96.882812 19.457031 96.855469 18.09375 C 96.832031 16.726562 98.535156 15.699219 98.535156 15.699219 L 124.191406 0.871094 C 125.769531 0.0351562 127.308594 0.871094 127.308594 0.871094 C 127.308594 0.871094 149.972656 14.042969 152.484375 15.460938 C 154.945312 16.628906 154.640625 19.046875 154.640625 19.046875 C 154.640625 19.046875 154.65625 45.207031 154.640625 47.75 Z M 144.398438 18.152344 C 139.144531 15.128906 126.773438 7.957031 126.773438 7.957031 C 126.773438 7.957031 125.5625 7.304688 124.324219 7.957031 L 104.179688 19.5625 C 104.179688 19.5625 102.84375 20.367188 102.863281 21.4375 C 102.882812 22.503906 102.863281 45.582031 102.863281 45.582031 C 102.863281 45.582031 102.878906 46.378906 103.617188 46.890625 C 104.351562 47.40625 124.511719 59.058594 124.511719 59.058594 C 124.511719 59.058594 125.34375 59.589844 126.582031 59.058594 C 127.835938 58.363281 147.101562 47.265625 147.101562 47.265625 C 147.101562 47.265625 148.21875 46.789062 148.230469 44.644531 C 148.234375 44.027344 148.234375 41.628906 148.238281 38.617188 L 125.550781 52.363281 L 125.550781 47.105469 C 125.550781 44.945312 127.226562 43.519531 127.226562 43.519531 L 147.289062 31.429688 C 148.046875 30.636719 148.203125 29.371094 148.234375 28.890625 C 148.234375 26.695312 148.234375 24.777344 148.234375 23.5625 L 125.550781 37.304688 L 125.550781 31.804688 C 125.550781 29.648438 126.988281 28.699219 126.988281 28.699219 Z M 144.398438 18.152344 " fill-opacity="1" fill-rule="nonzero"/></g><g fill="#0b0b0b" fill-opacity="1"><g transform="translate(58.575169, 113.176168)"><g><path d="M 16.203125 0.25 C 12.097656 0.25 8.625 -1.125 5.78125 -3.875 C 2.945312 -6.632812 1.53125 -10.144531 1.53125 -14.40625 C 1.53125 -18.664062 2.945312 -22.179688 5.78125 -24.953125 C 8.625 -27.722656 12.097656 -29.109375 16.203125 -29.109375 C 19.265625 -29.109375 21.988281 -28.351562 24.375 -26.84375 C 26.757812 -25.34375 28.488281 -23.21875 29.5625 -20.46875 L 23.890625 -20.46875 C 22.347656 -23.363281 19.785156 -24.8125 16.203125 -24.8125 C 13.304688 -24.8125 10.941406 -23.859375 9.109375 -21.953125 C 7.273438 -20.046875 6.359375 -17.53125 6.359375 -14.40625 C 6.359375 -11.28125 7.273438 -8.765625 9.109375 -6.859375 C 10.941406 -4.960938 13.304688 -4.015625 16.203125 -4.015625 C 19.785156 -4.015625 22.347656 -5.457031 23.890625 -8.34375 L 29.5625 -8.34375 C 28.488281 -5.59375 26.757812 -3.472656 24.375 -1.984375 C 21.988281 -0.492188 19.265625 0.25 16.203125 0.25 Z M 16.203125 0.25 "/></g></g></g><g fill="#0b0b0b" fill-opacity="1"><g transform="translate(91.976922, 113.176168)"><g><path d="M 0.40625 -22.78125 L 5.453125 -22.78125 L 11.90625 -4.21875 L 18.359375 -22.78125 L 23.4375 -22.78125 L 14.765625 0 L 9.046875 0 Z M 0.40625 -22.78125 "/></g></g></g><g fill="#0b0b0b" fill-opacity="1"><g transform="translate(117.235021, 113.176168)"><g><path d="M 3.09375 -28.734375 L 14.0625 -28.734375 C 17.007812 -28.734375 19.296875 -28.015625 20.921875 -26.578125 C 22.546875 -25.148438 23.359375 -23.332031 23.359375 -21.125 C 23.359375 -17.90625 21.5 -15.785156 17.78125 -14.765625 C 19.65625 -14.460938 21.160156 -13.628906 22.296875 -12.265625 C 23.441406 -10.898438 24.015625 -9.332031 24.015625 -7.5625 C 24.015625 -5.363281 23.160156 -3.550781 21.453125 -2.125 C 19.742188 -0.707031 17.457031 0 14.59375 0 L 3.09375 0 Z M 7.8125 -25.046875 L 7.8125 -16.53125 L 13.640625 -16.53125 C 15.179688 -16.53125 16.382812 -16.898438 17.25 -17.640625 C 18.125 -18.390625 18.5625 -19.429688 18.5625 -20.765625 C 18.5625 -22.109375 18.125 -23.15625 17.25 -23.90625 C 16.382812 -24.664062 15.179688 -25.046875 13.640625 -25.046875 Z M 7.8125 -3.671875 L 14.1875 -3.671875 C 15.78125 -3.671875 17.03125 -4.070312 17.9375 -4.875 C 18.851562 -5.675781 19.3125 -6.785156 19.3125 -8.203125 C 19.3125 -9.617188 18.828125 -10.75 17.859375 -11.59375 C 16.890625 -12.4375 15.609375 -12.859375 14.015625 -12.859375 L 7.8125 -12.859375 Z M 7.8125 -3.671875 "/></g></g></g><g fill="#0b0b0b" fill-opacity="1"><g transform="translate(144.725391, 113.176168)"><g><path d="M 17.890625 -5.65625 C 19.273438 -7.039062 19.96875 -8.957031 19.96875 -11.40625 C 19.96875 -13.863281 19.296875 -15.773438 17.953125 -17.140625 C 16.617188 -18.503906 15 -19.1875 13.09375 -19.1875 C 11.195312 -19.1875 9.597656 -18.503906 8.296875 -17.140625 C 7.003906 -15.773438 6.359375 -13.859375 6.359375 -11.390625 C 6.359375 -8.921875 6.992188 -7.003906 8.265625 -5.640625 C 9.535156 -4.273438 11.113281 -3.59375 13 -3.59375 C 14.882812 -3.59375 16.515625 -4.28125 17.890625 -5.65625 Z M 13 0.375 C 9.675781 0.375 6.941406 -0.707031 4.796875 -2.875 C 2.648438 -5.039062 1.578125 -7.878906 1.578125 -11.390625 C 1.578125 -14.898438 2.6875 -17.738281 4.90625 -19.90625 C 7.125 -22.070312 9.882812 -23.15625 13.1875 -23.15625 C 16.5 -23.15625 19.265625 -22.070312 21.484375 -19.90625 C 23.703125 -17.738281 24.8125 -14.90625 24.8125 -11.40625 C 24.8125 -7.90625 23.671875 -5.066406 21.390625 -2.890625 C 19.117188 -0.710938 16.320312 0.375 13 0.375 Z M 13 0.375 "/></g></g></g><g fill="#0b0b0b" fill-opacity="1"><g transform="translate(172.546468, 113.176168)"><g><path d="M 20.21875 -22.78125 L 12.859375 -11.53125 L 20.21875 0 L 14.890625 0 L 9.96875 -7.734375 L 5.328125 0 L 0.40625 0 L 7.765625 -11.203125 L 0.40625 -22.78125 L 5.75 -22.78125 L 10.671875 -15.046875 L 15.296875 -22.78125 Z M 20.21875 -22.78125 "/></g></g></g></svg>